<svg id="Camada_1" data-name="Camada 1" xmlns="http://www.w3.org/2000/svg" viewBox="0 0 374 335"><path d="M227.77,144.94c-17.85,4.91-27.52,22.65-27.56,22.77l-.1,0s18.5,10.08,35.33,5.45S263,150.54,263,150.42l.11,0S245.63,140,227.77,144.94Z"/><path d="M146.11,144.94c-17.85-4.92-35.33,5.45-35.33,5.45l.1,0c0,.12,10.74,18.14,27.56,22.77s35.34-5.45,35.34-5.45l-.11,0C173.63,167.59,164,149.85,146.11,144.94Z"/><path d="M365.41,82.81c-8.86-34.38-28.74-59.73-63-71C266-.22,233.62,8.26,207,36c-7.55,7.88-13.58,17.22-20.46,26.09-1-1.56-2.27-3.7-3.61-5.83-9.06-14.41-20.13-26.91-34.66-36-22.83-14.32-47.38-16.94-73-9.69-24,6.79-42.61,21.32-54.66,43C-1.11,92.61.05,132.05,21.69,170.89c12.89,23.13,30.7,42.41,50.17,60,31.41,28.28,63.53,55.77,95.35,83.58,4,3.51,8,7,12.13,10.41,4.88,4.06,10.5,4.31,15.2.21,39.59-34.57,80.8-67.32,118.25-104.3,15.45-15.25,29.58-31.66,40.27-50.74,8.49-15.14,14-31.23,15.4-48.63.08-1,.36-2.06.54-3.09V103.36C367.83,96.5,367.14,89.52,365.41,82.81ZM186.94,222.73S39.34,207.21,82.87,91.93c0,0,2.46,2.5,7,6.39A166.41,166.41,0,0,1,97.23,74.8s47.77,54.29,89.71,54.29S276.65,74.8,276.65,74.8A166.52,166.52,0,0,1,284,98.32c4.54-3.89,7-6.39,7-6.39C334.54,207.21,186.94,222.73,186.94,222.73Z"/></svg>